<mxfile host="app.diagrams.net" modified="2022-04-24T10:39:00.333Z" agent="5.0 (Windows NT 10.0; Win64; x64) AppleWebKit/537.36 (KHTML, like Gecko) Chrome/100.0.4896.127 Safari/537.36" etag="BeXZb6OnD9MFnbWi_JpN" version="17.4.6" type="github">
  <diagram id="g8YlMqBbn0beKlr_bPqO" name="第 1 页">
    <mxGraphModel dx="1865" dy="539" grid="0" gridSize="10" guides="1" tooltips="1" connect="1" arrows="1" fold="1" page="1" pageScale="1" pageWidth="827" pageHeight="1169" math="0" shadow="0">
      <root>
        <mxCell id="0" />
        <mxCell id="1" parent="0" />
        <mxCell id="LV9rs-zQbGKQO7pBVukM-77" value="" style="rounded=1;whiteSpace=wrap;html=1;fontSize=20;fillColor=#f8cecc;strokeColor=#b85450;" vertex="1" parent="1">
          <mxGeometry x="523" y="844.25" width="114" height="27.75" as="geometry" />
        </mxCell>
        <mxCell id="LV9rs-zQbGKQO7pBVukM-75" value="" style="rounded=1;whiteSpace=wrap;html=1;fontSize=20;fillColor=#d5e8d4;strokeColor=#82b366;" vertex="1" parent="1">
          <mxGeometry x="208" y="838.5" width="206" height="36.5" as="geometry" />
        </mxCell>
        <mxCell id="LV9rs-zQbGKQO7pBVukM-54" value="" style="rounded=1;whiteSpace=wrap;html=1;fontSize=20;fillColor=#ffe6cc;strokeColor=#d79b00;" vertex="1" parent="1">
          <mxGeometry x="478.5" y="516" width="65" height="26" as="geometry" />
        </mxCell>
        <mxCell id="LV9rs-zQbGKQO7pBVukM-53" value="" style="rounded=1;whiteSpace=wrap;html=1;fontSize=20;fillColor=#ffe6cc;strokeColor=#d79b00;" vertex="1" parent="1">
          <mxGeometry x="303" y="518" width="65" height="26" as="geometry" />
        </mxCell>
        <mxCell id="LV9rs-zQbGKQO7pBVukM-1" value="" style="endArrow=none;html=1;rounded=0;strokeWidth=3;startArrow=none;" edge="1" parent="1" source="LV9rs-zQbGKQO7pBVukM-10">
          <mxGeometry width="50" height="50" relative="1" as="geometry">
            <mxPoint x="233" y="301" as="sourcePoint" />
            <mxPoint x="591" y="301" as="targetPoint" />
          </mxGeometry>
        </mxCell>
        <mxCell id="LV9rs-zQbGKQO7pBVukM-3" value="C" style="edgeLabel;html=1;align=center;verticalAlign=middle;resizable=0;points=[];fontStyle=1;fontColor=#0000FF;" vertex="1" connectable="0" parent="LV9rs-zQbGKQO7pBVukM-1">
          <mxGeometry x="0.0897" y="-2" relative="1" as="geometry">
            <mxPoint x="-54" as="offset" />
          </mxGeometry>
        </mxCell>
        <mxCell id="LV9rs-zQbGKQO7pBVukM-5" value="&lt;font color=&quot;#ff3333&quot;&gt;R&lt;/font&gt;" style="edgeLabel;html=1;align=center;verticalAlign=middle;resizable=0;points=[];fontStyle=1" vertex="1" connectable="0" parent="LV9rs-zQbGKQO7pBVukM-1">
          <mxGeometry x="0.7715" y="-1" relative="1" as="geometry">
            <mxPoint as="offset" />
          </mxGeometry>
        </mxCell>
        <mxCell id="LV9rs-zQbGKQO7pBVukM-13" value="" style="endArrow=none;html=1;rounded=0;strokeWidth=3;" edge="1" parent="1" target="LV9rs-zQbGKQO7pBVukM-10">
          <mxGeometry width="50" height="50" relative="1" as="geometry">
            <mxPoint x="233" y="301" as="sourcePoint" />
            <mxPoint x="591" y="301" as="targetPoint" />
          </mxGeometry>
        </mxCell>
        <mxCell id="LV9rs-zQbGKQO7pBVukM-15" value="L" style="edgeLabel;html=1;align=center;verticalAlign=middle;resizable=0;points=[];fontStyle=1;fontColor=#FF3333;" vertex="1" connectable="0" parent="LV9rs-zQbGKQO7pBVukM-13">
          <mxGeometry x="-0.7398" relative="1" as="geometry">
            <mxPoint as="offset" />
          </mxGeometry>
        </mxCell>
        <mxCell id="LV9rs-zQbGKQO7pBVukM-10" value="&lt;b&gt;i&#39;&lt;/b&gt;" style="rounded=1;whiteSpace=wrap;html=1;fontColor=#330000;" vertex="1" parent="1">
          <mxGeometry x="308" y="291" width="59" height="22" as="geometry" />
        </mxCell>
        <mxCell id="LV9rs-zQbGKQO7pBVukM-19" value="&lt;b&gt;i&#39;&lt;/b&gt;" style="rounded=1;whiteSpace=wrap;html=1;fontColor=#330000;" vertex="1" parent="1">
          <mxGeometry x="314" y="404" width="59" height="22" as="geometry" />
        </mxCell>
        <mxCell id="LV9rs-zQbGKQO7pBVukM-39" value="&lt;b&gt;i&#39;&lt;/b&gt;" style="rounded=1;whiteSpace=wrap;html=1;fontColor=#330000;" vertex="1" parent="1">
          <mxGeometry x="328" y="311" width="59" height="22" as="geometry" />
        </mxCell>
        <mxCell id="LV9rs-zQbGKQO7pBVukM-42" value="&lt;b&gt;&lt;font style=&quot;font-size: 20px&quot;&gt;a&amp;nbsp; b&amp;nbsp; c&amp;nbsp; d&amp;nbsp; c&amp;nbsp; k&amp;nbsp; s&amp;nbsp; t&amp;nbsp; s&amp;nbsp; k&amp;nbsp; c&amp;nbsp; d&amp;nbsp; c&amp;nbsp; b&amp;nbsp; a&lt;/font&gt;&lt;/b&gt;" style="text;html=1;strokeColor=none;fillColor=none;align=center;verticalAlign=middle;whiteSpace=wrap;rounded=0;fontColor=#330000;" vertex="1" parent="1">
          <mxGeometry x="248" y="512.5" width="355" height="37" as="geometry" />
        </mxCell>
        <mxCell id="LV9rs-zQbGKQO7pBVukM-43" value="i&#39;" style="text;html=1;strokeColor=none;fillColor=none;align=center;verticalAlign=middle;whiteSpace=wrap;rounded=0;fontSize=20;fontColor=#330000;" vertex="1" parent="1">
          <mxGeometry x="307" y="488" width="60" height="30" as="geometry" />
        </mxCell>
        <mxCell id="LV9rs-zQbGKQO7pBVukM-47" value="i" style="text;html=1;strokeColor=none;fillColor=none;align=center;verticalAlign=middle;whiteSpace=wrap;rounded=0;fontSize=20;fontColor=#330000;" vertex="1" parent="1">
          <mxGeometry x="481" y="481" width="60" height="30" as="geometry" />
        </mxCell>
        <mxCell id="LV9rs-zQbGKQO7pBVukM-48" value="L" style="text;html=1;strokeColor=none;fillColor=none;align=center;verticalAlign=middle;whiteSpace=wrap;rounded=0;fontSize=20;fontColor=#330000;" vertex="1" parent="1">
          <mxGeometry x="231" y="488" width="60" height="30" as="geometry" />
        </mxCell>
        <mxCell id="LV9rs-zQbGKQO7pBVukM-49" value="R" style="text;html=1;strokeColor=none;fillColor=none;align=center;verticalAlign=middle;whiteSpace=wrap;rounded=0;fontSize=20;fontColor=#330000;" vertex="1" parent="1">
          <mxGeometry x="550" y="486" width="60" height="30" as="geometry" />
        </mxCell>
        <mxCell id="LV9rs-zQbGKQO7pBVukM-50" value="" style="endArrow=none;dashed=1;html=1;dashPattern=1 3;strokeWidth=2;rounded=0;fontSize=20;fontColor=#330000;" edge="1" parent="1">
          <mxGeometry width="50" height="50" relative="1" as="geometry">
            <mxPoint x="422" y="585" as="sourcePoint" />
            <mxPoint x="422" y="450" as="targetPoint" />
          </mxGeometry>
        </mxCell>
        <mxCell id="LV9rs-zQbGKQO7pBVukM-51" value="C" style="edgeLabel;html=1;align=center;verticalAlign=middle;resizable=0;points=[];fontSize=20;fontColor=#330000;" vertex="1" connectable="0" parent="LV9rs-zQbGKQO7pBVukM-50">
          <mxGeometry x="-0.6563" y="2" relative="1" as="geometry">
            <mxPoint as="offset" />
          </mxGeometry>
        </mxCell>
        <mxCell id="LV9rs-zQbGKQO7pBVukM-52" value="" style="endArrow=none;dashed=1;html=1;dashPattern=1 3;strokeWidth=2;rounded=0;fontSize=20;fontColor=#330000;" edge="1" parent="1">
          <mxGeometry width="50" height="50" relative="1" as="geometry">
            <mxPoint x="153" y="517" as="sourcePoint" />
            <mxPoint x="153" y="436" as="targetPoint" />
          </mxGeometry>
        </mxCell>
        <mxCell id="LV9rs-zQbGKQO7pBVukM-55" value="" style="group" vertex="1" connectable="0" parent="1">
          <mxGeometry x="177" y="582" width="589" height="59" as="geometry" />
        </mxCell>
        <mxCell id="LV9rs-zQbGKQO7pBVukM-29" value="" style="endArrow=none;html=1;rounded=0;fontColor=#330000;strokeWidth=3;" edge="1" parent="LV9rs-zQbGKQO7pBVukM-55">
          <mxGeometry width="50" height="50" relative="1" as="geometry">
            <mxPoint y="42.5" as="sourcePoint" />
            <mxPoint x="589" y="42.5" as="targetPoint" />
          </mxGeometry>
        </mxCell>
        <mxCell id="LV9rs-zQbGKQO7pBVukM-57" value="a" style="edgeLabel;html=1;align=center;verticalAlign=middle;resizable=0;points=[];fontSize=20;fontColor=#330000;" vertex="1" connectable="0" parent="LV9rs-zQbGKQO7pBVukM-29">
          <mxGeometry x="-0.6829" y="-3" relative="1" as="geometry">
            <mxPoint as="offset" />
          </mxGeometry>
        </mxCell>
        <mxCell id="LV9rs-zQbGKQO7pBVukM-58" value="b" style="edgeLabel;html=1;align=center;verticalAlign=middle;resizable=0;points=[];fontSize=20;fontColor=#330000;" vertex="1" connectable="0" parent="LV9rs-zQbGKQO7pBVukM-29">
          <mxGeometry x="-0.238" y="1" relative="1" as="geometry">
            <mxPoint as="offset" />
          </mxGeometry>
        </mxCell>
        <mxCell id="LV9rs-zQbGKQO7pBVukM-59" value="x" style="edgeLabel;html=1;align=center;verticalAlign=middle;resizable=0;points=[];fontSize=20;fontColor=#330000;" vertex="1" connectable="0" parent="LV9rs-zQbGKQO7pBVukM-29">
          <mxGeometry x="0.3494" y="-3" relative="1" as="geometry">
            <mxPoint as="offset" />
          </mxGeometry>
        </mxCell>
        <mxCell id="LV9rs-zQbGKQO7pBVukM-60" value="y" style="edgeLabel;html=1;align=center;verticalAlign=middle;resizable=0;points=[];fontSize=20;fontColor=#330000;" vertex="1" connectable="0" parent="LV9rs-zQbGKQO7pBVukM-29">
          <mxGeometry x="0.7603" y="-3" relative="1" as="geometry">
            <mxPoint as="offset" />
          </mxGeometry>
        </mxCell>
        <mxCell id="LV9rs-zQbGKQO7pBVukM-30" value="L" style="text;html=1;strokeColor=none;fillColor=none;align=center;verticalAlign=middle;whiteSpace=wrap;rounded=0;fontColor=#330000;" vertex="1" parent="LV9rs-zQbGKQO7pBVukM-55">
          <mxGeometry x="13" width="60" height="30" as="geometry" />
        </mxCell>
        <mxCell id="LV9rs-zQbGKQO7pBVukM-31" value="R" style="text;html=1;strokeColor=none;fillColor=none;align=center;verticalAlign=middle;whiteSpace=wrap;rounded=0;fontColor=#330000;" vertex="1" parent="LV9rs-zQbGKQO7pBVukM-55">
          <mxGeometry x="524" width="60" height="30" as="geometry" />
        </mxCell>
        <mxCell id="LV9rs-zQbGKQO7pBVukM-32" value="i&#39;" style="text;html=1;strokeColor=none;fillColor=none;align=center;verticalAlign=middle;whiteSpace=wrap;rounded=0;fontColor=#330000;" vertex="1" parent="LV9rs-zQbGKQO7pBVukM-55">
          <mxGeometry x="123" width="60" height="30" as="geometry" />
        </mxCell>
        <mxCell id="LV9rs-zQbGKQO7pBVukM-33" value="c" style="text;html=1;strokeColor=none;fillColor=none;align=center;verticalAlign=middle;whiteSpace=wrap;rounded=0;fontColor=#330000;" vertex="1" parent="LV9rs-zQbGKQO7pBVukM-55">
          <mxGeometry x="262" width="60" height="30" as="geometry" />
        </mxCell>
        <mxCell id="LV9rs-zQbGKQO7pBVukM-34" value="i" style="text;html=1;strokeColor=none;fillColor=none;align=center;verticalAlign=middle;whiteSpace=wrap;rounded=0;fontColor=#330000;" vertex="1" parent="LV9rs-zQbGKQO7pBVukM-55">
          <mxGeometry x="425" width="60" height="30" as="geometry" />
        </mxCell>
        <mxCell id="LV9rs-zQbGKQO7pBVukM-38" value="甲" style="rounded=1;whiteSpace=wrap;html=1;fillColor=#ffe6cc;strokeColor=#d79b00;" vertex="1" parent="LV9rs-zQbGKQO7pBVukM-55">
          <mxGeometry x="118" y="27" width="81" height="32" as="geometry" />
        </mxCell>
        <mxCell id="LV9rs-zQbGKQO7pBVukM-40" value="乙" style="rounded=1;whiteSpace=wrap;html=1;fillColor=#ffe6cc;strokeColor=#d79b00;" vertex="1" parent="LV9rs-zQbGKQO7pBVukM-55">
          <mxGeometry x="418" y="27" width="81" height="32" as="geometry" />
        </mxCell>
        <mxCell id="LV9rs-zQbGKQO7pBVukM-61" value="&lt;b style=&quot;font-size: 15px&quot;&gt;证明：此时i回文区域的长度就是等于i&#39;回文区域的长度。&lt;br&gt;1、甲和乙是关于外面一层回文区域L-R的中心位置C对称的，所以乙=甲的逆序，又因为甲是回文，所以乙也是回文。&lt;br&gt;2、在回文区域L-R中，a==x b==y的，又因为甲的回回文没有包括ab所以a!=b,也即x!=y，所以i的回文区域只有乙&lt;/b&gt;" style="text;html=1;strokeColor=none;fillColor=none;align=left;verticalAlign=middle;whiteSpace=wrap;rounded=0;fontSize=20;fontColor=#330000;" vertex="1" parent="1">
          <mxGeometry x="146" y="607" width="644" height="202" as="geometry" />
        </mxCell>
        <mxCell id="LV9rs-zQbGKQO7pBVukM-62" value="&lt;b&gt;&lt;font style=&quot;font-size: 20px&quot;&gt;a&amp;nbsp; b&amp;nbsp; c&amp;nbsp; d&amp;nbsp; e&amp;nbsp; d&amp;nbsp; c&amp;nbsp; b&amp;nbsp; a&amp;nbsp; t&amp;nbsp; s&amp;nbsp; t&amp;nbsp; a&amp;nbsp; &amp;nbsp;b&amp;nbsp; c&amp;nbsp; d&amp;nbsp; e&amp;nbsp; d&amp;nbsp; c&amp;nbsp;&amp;nbsp;&lt;/font&gt;&lt;/b&gt;" style="text;html=1;strokeColor=none;fillColor=none;align=center;verticalAlign=middle;whiteSpace=wrap;rounded=0;fontSize=15;fontColor=#330000;" vertex="1" parent="1">
          <mxGeometry x="188" y="834" width="482" height="41" as="geometry" />
        </mxCell>
        <mxCell id="LV9rs-zQbGKQO7pBVukM-63" value="C" style="text;html=1;strokeColor=none;fillColor=none;align=center;verticalAlign=middle;whiteSpace=wrap;rounded=0;fontSize=20;fontColor=#330000;" vertex="1" parent="1">
          <mxGeometry x="416" y="885" width="60" height="30" as="geometry" />
        </mxCell>
        <mxCell id="LV9rs-zQbGKQO7pBVukM-64" value="" style="endArrow=none;dashed=1;html=1;dashPattern=1 3;strokeWidth=2;rounded=0;fontSize=20;fontColor=#330000;fillColor=#ffe6cc;strokeColor=#D79B00;" edge="1" parent="1">
          <mxGeometry width="50" height="50" relative="1" as="geometry">
            <mxPoint x="443" y="822" as="sourcePoint" />
            <mxPoint x="443" y="887" as="targetPoint" />
          </mxGeometry>
        </mxCell>
        <mxCell id="LV9rs-zQbGKQO7pBVukM-65" value="" style="endArrow=none;dashed=1;html=1;dashPattern=1 3;strokeWidth=3;rounded=0;fontSize=20;fontColor=#330000;strokeColor=#FF0000;" edge="1" parent="1">
          <mxGeometry width="50" height="50" relative="1" as="geometry">
            <mxPoint x="265" y="821" as="sourcePoint" />
            <mxPoint x="265" y="902" as="targetPoint" />
          </mxGeometry>
        </mxCell>
        <mxCell id="LV9rs-zQbGKQO7pBVukM-66" value="" style="endArrow=none;dashed=1;html=1;dashPattern=1 3;strokeWidth=4;rounded=0;fontSize=20;fontColor=#330000;strokeColor=#FF0000;" edge="1" parent="1">
          <mxGeometry width="50" height="50" relative="1" as="geometry">
            <mxPoint x="628" y="817" as="sourcePoint" />
            <mxPoint x="628" y="898" as="targetPoint" />
          </mxGeometry>
        </mxCell>
        <mxCell id="LV9rs-zQbGKQO7pBVukM-68" value="L" style="text;html=1;strokeColor=none;fillColor=none;align=center;verticalAlign=middle;whiteSpace=wrap;rounded=0;fontSize=20;fontColor=#330000;" vertex="1" parent="1">
          <mxGeometry x="236" y="907" width="60" height="30" as="geometry" />
        </mxCell>
        <mxCell id="LV9rs-zQbGKQO7pBVukM-69" value="R" style="text;html=1;strokeColor=none;fillColor=none;align=center;verticalAlign=middle;whiteSpace=wrap;rounded=0;fontSize=20;fontColor=#330000;" vertex="1" parent="1">
          <mxGeometry x="600" y="907" width="60" height="30" as="geometry" />
        </mxCell>
        <mxCell id="LV9rs-zQbGKQO7pBVukM-70" value="" style="endArrow=none;dashed=1;html=1;dashPattern=1 3;strokeWidth=2;rounded=0;fontSize=20;fontColor=#330000;" edge="1" parent="1">
          <mxGeometry width="50" height="50" relative="1" as="geometry">
            <mxPoint x="583" y="827" as="sourcePoint" />
            <mxPoint x="583" y="892" as="targetPoint" />
          </mxGeometry>
        </mxCell>
        <mxCell id="LV9rs-zQbGKQO7pBVukM-72" value="i" style="text;html=1;strokeColor=none;fillColor=none;align=center;verticalAlign=middle;whiteSpace=wrap;rounded=0;fontSize=20;fontColor=#330000;" vertex="1" parent="1">
          <mxGeometry x="553" y="890" width="60" height="30" as="geometry" />
        </mxCell>
        <mxCell id="LV9rs-zQbGKQO7pBVukM-73" value="i&#39;" style="text;html=1;strokeColor=none;fillColor=none;align=center;verticalAlign=middle;whiteSpace=wrap;rounded=0;fontSize=20;fontColor=#330000;" vertex="1" parent="1">
          <mxGeometry x="284" y="885" width="60" height="30" as="geometry" />
        </mxCell>
        <mxCell id="LV9rs-zQbGKQO7pBVukM-74" value="" style="endArrow=none;dashed=1;html=1;dashPattern=1 3;strokeWidth=2;rounded=0;fontSize=20;fontColor=#330000;" edge="1" parent="1">
          <mxGeometry width="50" height="50" relative="1" as="geometry">
            <mxPoint x="313.5" y="809" as="sourcePoint" />
            <mxPoint x="313.5" y="875" as="targetPoint" />
          </mxGeometry>
        </mxCell>
        <mxCell id="LV9rs-zQbGKQO7pBVukM-79" value="" style="endArrow=none;html=1;rounded=0;fontColor=#330000;strokeWidth=3;" edge="1" parent="1">
          <mxGeometry width="50" height="50" relative="1" as="geometry">
            <mxPoint x="117" y="1043" as="sourcePoint" />
            <mxPoint x="758.5" y="1042.5" as="targetPoint" />
          </mxGeometry>
        </mxCell>
        <mxCell id="LV9rs-zQbGKQO7pBVukM-81" value="b" style="edgeLabel;html=1;align=center;verticalAlign=middle;resizable=0;points=[];fontSize=20;fontColor=#330000;" vertex="1" connectable="0" parent="LV9rs-zQbGKQO7pBVukM-79">
          <mxGeometry x="-0.238" y="1" relative="1" as="geometry">
            <mxPoint as="offset" />
          </mxGeometry>
        </mxCell>
        <mxCell id="LV9rs-zQbGKQO7pBVukM-82" value="x" style="edgeLabel;html=1;align=center;verticalAlign=middle;resizable=0;points=[];fontSize=20;fontColor=#330000;" vertex="1" connectable="0" parent="LV9rs-zQbGKQO7pBVukM-79">
          <mxGeometry x="0.3494" y="-3" relative="1" as="geometry">
            <mxPoint x="26" y="-6" as="offset" />
          </mxGeometry>
        </mxCell>
        <mxCell id="LV9rs-zQbGKQO7pBVukM-83" value="y" style="edgeLabel;html=1;align=center;verticalAlign=middle;resizable=0;points=[];fontSize=20;fontColor=#330000;" vertex="1" connectable="0" parent="LV9rs-zQbGKQO7pBVukM-79">
          <mxGeometry x="0.7603" y="-3" relative="1" as="geometry">
            <mxPoint as="offset" />
          </mxGeometry>
        </mxCell>
        <mxCell id="LV9rs-zQbGKQO7pBVukM-91" value="a" style="edgeLabel;html=1;align=center;verticalAlign=middle;resizable=0;points=[];fontSize=20;fontColor=#330000;" vertex="1" connectable="0" parent="LV9rs-zQbGKQO7pBVukM-79">
          <mxGeometry x="-0.8298" y="-2" relative="1" as="geometry">
            <mxPoint x="29" y="-7" as="offset" />
          </mxGeometry>
        </mxCell>
        <mxCell id="LV9rs-zQbGKQO7pBVukM-93" value="b" style="edgeLabel;html=1;align=center;verticalAlign=middle;resizable=0;points=[];fontSize=20;fontColor=#330000;" vertex="1" connectable="0" parent="LV9rs-zQbGKQO7pBVukM-79">
          <mxGeometry x="-0.1657" y="-5" relative="1" as="geometry">
            <mxPoint x="-416" y="263" as="offset" />
          </mxGeometry>
        </mxCell>
        <mxCell id="LV9rs-zQbGKQO7pBVukM-87" value="&lt;b&gt;&lt;font style=&quot;font-size: 18px&quot;&gt;c&lt;/font&gt;&lt;/b&gt;" style="text;html=1;strokeColor=none;fillColor=none;align=center;verticalAlign=middle;whiteSpace=wrap;rounded=0;fontColor=#330000;" vertex="1" parent="1">
          <mxGeometry x="431.5" y="1000" width="60" height="30" as="geometry" />
        </mxCell>
        <mxCell id="LV9rs-zQbGKQO7pBVukM-89" value="甲" style="rounded=1;whiteSpace=wrap;html=1;fillColor=#ffe6cc;strokeColor=#d79b00;" vertex="1" parent="1">
          <mxGeometry x="180" y="1027" width="188.5" height="26" as="geometry" />
        </mxCell>
        <mxCell id="LV9rs-zQbGKQO7pBVukM-90" value="乙" style="rounded=1;whiteSpace=wrap;html=1;fillColor=#f8cecc;strokeColor=#b85450;" vertex="1" parent="1">
          <mxGeometry x="587.5" y="1027" width="83.5" height="22" as="geometry" />
        </mxCell>
        <mxCell id="LV9rs-zQbGKQO7pBVukM-94" value="" style="endArrow=none;dashed=1;html=1;dashPattern=1 3;strokeWidth=2;rounded=0;fontSize=20;fontColor=#330000;" edge="1" parent="1">
          <mxGeometry width="50" height="50" relative="1" as="geometry">
            <mxPoint x="212" y="1090" as="sourcePoint" />
            <mxPoint x="212" y="1021" as="targetPoint" />
          </mxGeometry>
        </mxCell>
        <mxCell id="LV9rs-zQbGKQO7pBVukM-95" value="" style="endArrow=none;dashed=1;html=1;dashPattern=1 3;strokeWidth=6;rounded=0;fontSize=20;fontColor=#330000;strokeColor=#FF0000;" edge="1" parent="1">
          <mxGeometry width="50" height="50" relative="1" as="geometry">
            <mxPoint x="332" y="1126" as="sourcePoint" />
            <mxPoint x="332" y="967" as="targetPoint" />
          </mxGeometry>
        </mxCell>
        <mxCell id="LV9rs-zQbGKQO7pBVukM-96" value="L&#39;" style="text;html=1;strokeColor=none;fillColor=none;align=center;verticalAlign=middle;whiteSpace=wrap;rounded=0;fontSize=20;fontColor=#330000;" vertex="1" parent="1">
          <mxGeometry x="310" y="1000" width="60" height="30" as="geometry" />
        </mxCell>
        <mxCell id="LV9rs-zQbGKQO7pBVukM-97" value="L" style="text;strokeColor=none;fillColor=none;align=left;verticalAlign=middle;spacingLeft=4;spacingRight=4;overflow=hidden;points=[[0,0.5],[1,0.5]];portConstraint=eastwest;rotatable=0;fontSize=20;fontColor=#330000;" vertex="1" parent="1">
          <mxGeometry x="194" y="992" width="44" height="24" as="geometry" />
        </mxCell>
        <mxCell id="LV9rs-zQbGKQO7pBVukM-98" value="i&#39;" style="text;html=1;strokeColor=none;fillColor=none;align=center;verticalAlign=middle;whiteSpace=wrap;rounded=0;fontSize=20;fontColor=#330000;" vertex="1" parent="1">
          <mxGeometry x="244" y="997" width="60" height="30" as="geometry" />
        </mxCell>
        <mxCell id="LV9rs-zQbGKQO7pBVukM-99" value="甲" style="rounded=1;whiteSpace=wrap;html=1;fontSize=20;fillColor=#f8cecc;strokeColor=#b85450;" vertex="1" parent="1">
          <mxGeometry x="216" y="1029" width="116" height="24" as="geometry" />
        </mxCell>
        <mxCell id="LV9rs-zQbGKQO7pBVukM-101" value="" style="endArrow=none;dashed=1;html=1;dashPattern=1 3;strokeWidth=6;rounded=0;fontSize=20;fontColor=#330000;strokeColor=#FF0000;" edge="1" parent="1">
          <mxGeometry width="50" height="50" relative="1" as="geometry">
            <mxPoint x="671" y="1125" as="sourcePoint" />
            <mxPoint x="671" y="966" as="targetPoint" />
          </mxGeometry>
        </mxCell>
        <mxCell id="LV9rs-zQbGKQO7pBVukM-102" value="R" style="text;html=1;strokeColor=none;fillColor=none;align=center;verticalAlign=middle;whiteSpace=wrap;rounded=0;fontSize=20;fontColor=#330000;" vertex="1" parent="1">
          <mxGeometry x="639" y="984" width="60" height="30" as="geometry" />
        </mxCell>
        <mxCell id="LV9rs-zQbGKQO7pBVukM-103" value="a" style="text;html=1;strokeColor=none;fillColor=none;align=center;verticalAlign=middle;whiteSpace=wrap;rounded=0;fontSize=20;fontColor=#330000;" vertex="1" parent="1">
          <mxGeometry x="188" y="1029" width="24" height="21" as="geometry" />
        </mxCell>
        <mxCell id="LV9rs-zQbGKQO7pBVukM-104" value="b" style="text;html=1;strokeColor=none;fillColor=none;align=center;verticalAlign=middle;whiteSpace=wrap;rounded=0;fontSize=20;fontColor=#330000;" vertex="1" parent="1">
          <mxGeometry x="331.5" y="1027" width="24" height="28" as="geometry" />
        </mxCell>
        <mxCell id="LV9rs-zQbGKQO7pBVukM-105" value="" style="endArrow=none;dashed=1;html=1;dashPattern=1 3;strokeWidth=6;rounded=0;fontSize=18;fontColor=#330000;strokeColor=#40FF79;" edge="1" parent="1">
          <mxGeometry width="50" height="50" relative="1" as="geometry">
            <mxPoint x="460.75" y="1126" as="sourcePoint" />
            <mxPoint x="462.25" y="966" as="targetPoint" />
          </mxGeometry>
        </mxCell>
        <mxCell id="LV9rs-zQbGKQO7pBVukM-106" value="&lt;div&gt;&lt;span&gt;证明：&lt;/span&gt;&lt;/div&gt;&lt;div&gt;&lt;span&gt;1、甲和乙逆序的关系，甲是回文，所以乙是回文&lt;/span&gt;&lt;/div&gt;&lt;div&gt;&lt;span&gt;2、a==b,b==x, a != y 所以x!= y&lt;/span&gt;&lt;/div&gt;" style="text;html=1;strokeColor=none;fillColor=none;align=left;verticalAlign=middle;whiteSpace=wrap;rounded=0;fontSize=18;fontColor=#330000;" vertex="1" parent="1">
          <mxGeometry x="135" y="1118" width="418" height="137" as="geometry" />
        </mxCell>
        <mxCell id="LV9rs-zQbGKQO7pBVukM-107" value="&lt;b&gt;&lt;font style=&quot;font-size: 20px&quot;&gt;x&amp;nbsp; a&amp;nbsp; b&amp;nbsp; c&amp;nbsp; b&amp;nbsp; a&amp;nbsp; s&amp;nbsp; t&amp;nbsp; &amp;nbsp;&lt;font color=&quot;#3333ff&quot;&gt;s&lt;/font&gt;&amp;nbsp; a&amp;nbsp; b&amp;nbsp; c&amp;nbsp; b&amp;nbsp; a&amp;nbsp; &lt;font color=&quot;#3333ff&quot;&gt;s&lt;/font&gt;&lt;/font&gt;&lt;/b&gt;" style="text;html=1;strokeColor=none;fillColor=none;align=center;verticalAlign=middle;whiteSpace=wrap;rounded=0;fontSize=18;fontColor=#330000;" vertex="1" parent="1">
          <mxGeometry x="164" y="1325" width="449" height="27" as="geometry" />
        </mxCell>
        <mxCell id="LV9rs-zQbGKQO7pBVukM-108" value="" style="endArrow=none;dashed=1;html=1;dashPattern=1 3;strokeWidth=4;rounded=0;fontSize=20;fontColor=#330000;strokeColor=#FF0000;" edge="1" parent="1">
          <mxGeometry width="50" height="50" relative="1" as="geometry">
            <mxPoint x="251" y="1401" as="sourcePoint" />
            <mxPoint x="251" y="1305" as="targetPoint" />
          </mxGeometry>
        </mxCell>
        <mxCell id="LV9rs-zQbGKQO7pBVukM-109" value="L" style="text;html=1;strokeColor=none;fillColor=none;align=center;verticalAlign=middle;whiteSpace=wrap;rounded=0;fontSize=20;fontColor=#330000;" vertex="1" parent="1">
          <mxGeometry x="224" y="1275" width="60" height="30" as="geometry" />
        </mxCell>
        <mxCell id="LV9rs-zQbGKQO7pBVukM-111" value="" style="endArrow=none;dashed=1;html=1;dashPattern=1 3;strokeWidth=4;rounded=0;fontSize=20;fontColor=#330000;strokeColor=#FF0000;" edge="1" parent="1">
          <mxGeometry width="50" height="50" relative="1" as="geometry">
            <mxPoint x="527" y="1406" as="sourcePoint" />
            <mxPoint x="527" y="1310" as="targetPoint" />
          </mxGeometry>
        </mxCell>
        <mxCell id="LV9rs-zQbGKQO7pBVukM-112" value="R" style="text;html=1;strokeColor=none;fillColor=none;align=center;verticalAlign=middle;whiteSpace=wrap;rounded=0;fontSize=20;fontColor=#330000;" vertex="1" parent="1">
          <mxGeometry x="499" y="1281" width="60" height="30" as="geometry" />
        </mxCell>
        <mxCell id="LV9rs-zQbGKQO7pBVukM-114" value="" style="endArrow=none;dashed=1;html=1;dashPattern=1 3;strokeWidth=4;rounded=0;fontSize=20;fontColor=#330000;strokeColor=#40FF79;" edge="1" parent="1">
          <mxGeometry width="50" height="50" relative="1" as="geometry">
            <mxPoint x="386" y="1393" as="sourcePoint" />
            <mxPoint x="386" y="1297" as="targetPoint" />
          </mxGeometry>
        </mxCell>
        <mxCell id="LV9rs-zQbGKQO7pBVukM-116" value="C" style="text;html=1;strokeColor=none;fillColor=none;align=center;verticalAlign=middle;whiteSpace=wrap;rounded=0;fontSize=20;fontColor=#330000;" vertex="1" parent="1">
          <mxGeometry x="360" y="1281" width="60" height="30" as="geometry" />
        </mxCell>
        <mxCell id="LV9rs-zQbGKQO7pBVukM-117" value="i" style="text;html=1;strokeColor=none;fillColor=none;align=center;verticalAlign=middle;whiteSpace=wrap;rounded=0;fontSize=20;fontColor=#330000;" vertex="1" parent="1">
          <mxGeometry x="453" y="1356" width="60" height="30" as="geometry" />
        </mxCell>
        <mxCell id="LV9rs-zQbGKQO7pBVukM-118" value="i&#39;" style="text;html=1;strokeColor=none;fillColor=none;align=center;verticalAlign=middle;whiteSpace=wrap;rounded=0;fontSize=20;fontColor=#330000;" vertex="1" parent="1">
          <mxGeometry x="272" y="1356" width="60" height="30" as="geometry" />
        </mxCell>
        <mxCell id="LV9rs-zQbGKQO7pBVukM-119" value="" style="endArrow=none;dashed=1;html=1;dashPattern=1 3;strokeWidth=2;rounded=0;fontSize=20;fontColor=#330000;" edge="1" parent="1">
          <mxGeometry width="50" height="50" relative="1" as="geometry">
            <mxPoint x="296" y="1420" as="sourcePoint" />
            <mxPoint x="296" y="1311" as="targetPoint" />
          </mxGeometry>
        </mxCell>
        <mxCell id="LV9rs-zQbGKQO7pBVukM-120" value="" style="endArrow=none;dashed=1;html=1;dashPattern=1 3;strokeWidth=2;rounded=0;fontSize=20;fontColor=#330000;" edge="1" parent="1">
          <mxGeometry width="50" height="50" relative="1" as="geometry">
            <mxPoint x="476" y="1414" as="sourcePoint" />
            <mxPoint x="476" y="1305" as="targetPoint" />
          </mxGeometry>
        </mxCell>
        <mxCell id="LV9rs-zQbGKQO7pBVukM-121" value="此时i回文区域的长度至少是i&#39;区域的长度，但是有可能更大，但是至少[abcbc]这一段不用判断" style="text;html=1;strokeColor=none;fillColor=none;align=center;verticalAlign=middle;whiteSpace=wrap;rounded=0;fontSize=20;fontColor=#3333FF;" vertex="1" parent="1">
          <mxGeometry x="198" y="1409" width="374" height="177" as="geometry" />
        </mxCell>
      </root>
    </mxGraphModel>
  </diagram>
</mxfile>
